HIERARCHY
ROOT Root
{
	OFFSET 0.00000 0.00000 0.00000
	CHANNELS 6 Xposition Yposition Zposition Zrotation Xrotation Yrotation
	JOINT Hips
	{
		OFFSET 0 0 0	
		CHANNELS 3 Zrotation Xrotation Yrotation
		JOINT Spine
		{
			OFFSET 0 4 0	
			CHANNELS 3 Zrotation Xrotation Yrotation
			JOINT Spine1
			{
				OFFSET 0 19.4 0	
				CHANNELS 3 Zrotation Xrotation Yrotation
				JOINT Spine2
				{
					OFFSET 0 16.6 0	
					CHANNELS 3 Zrotation Xrotation Yrotation
					JOINT LeftCollar
					{
						OFFSET 0 10 0	
						CHANNELS 3 Zrotation Xrotation Yrotation
						JOINT LeftArm
						{
							OFFSET 15.6 -2 3	
							CHANNELS 3 Zrotation Xrotation Yrotation
							JOINT LeftForeArm
							{
								OFFSET 3.5 -27 -1	
								CHANNELS 3 Zrotation Xrotation Yrotation
								JOINT LeftHand
								{
									OFFSET 1 -27 1	
									CHANNELS 3 Zrotation Xrotation Yrotation
									End Site
									{
										OFFSET 0 -15 0
									}
								}
							}
						}
					}
					JOINT RightCollar
					{
						OFFSET 0 10 0	
						CHANNELS 3 Zrotation Xrotation Yrotation
						JOINT RightArm
						{
							OFFSET -15.6 -2 3	
							CHANNELS 3 Zrotation Xrotation Yrotation
							JOINT RightForeArm
							{
								OFFSET -3.5 -27 -1	
								CHANNELS 3 Zrotation Xrotation Yrotation
								JOINT RightHand
								{
									OFFSET -1 -27 1	
									CHANNELS 3 Zrotation Xrotation Yrotation
									End Site
									{
										OFFSET 0 -15 0
									}
								}
							}
						}
					}
					JOINT Neck
					{
						OFFSET 0 10 0	
						CHANNELS 3 Zrotation Xrotation Yrotation
						JOINT Head
						{
							OFFSET 0 12.7 3	
							CHANNELS 3 Zrotation Xrotation Yrotation
							End Site
							{
								OFFSET 0 12.7 3
							}
						}
					}
				}
			}
		}
	}
	JOINT LeftHip
	{
		OFFSET 0 0 0	
		CHANNELS 3 Zrotation Xrotation Yrotation
		JOINT LeftUpLeg
		{
			OFFSET 8.8 -6 0	
			CHANNELS 3 Zrotation Xrotation Yrotation
			JOINT LeftLeg
			{
				OFFSET 0 -39 2	
				CHANNELS 3 Zrotation Xrotation Yrotation
				JOINT LeftFoot
				{
					OFFSET 0 -43 -2	
					CHANNELS 3 Zrotation Xrotation Yrotation
					JOINT LeftFootFront
					{
						OFFSET 0 -7 8.5	
						CHANNELS 3 Zrotation Xrotation Yrotation
						End Site
						{
							OFFSET 0 -0.5 9
						}
					}
				}
				JOINT LeftHeel
				{
					OFFSET 0 -43 -2	
					CHANNELS 3 Zrotation Xrotation Yrotation
					End Site
					{
						OFFSET 0 -7.5 -5
					}
				}
			}
		}
	}
	JOINT RightHip
	{
		OFFSET 0 0 0	
		CHANNELS 3 Zrotation Xrotation Yrotation
		JOINT RightUpLeg
		{
			OFFSET -8.8 -6 0	
			CHANNELS 3 Zrotation Xrotation Yrotation
			JOINT RightLeg
			{
				OFFSET 0 -39 2	
				CHANNELS 3 Zrotation Xrotation Yrotation
				JOINT RightFoot
				{
					OFFSET 0 -43 -2	
					CHANNELS 3 Zrotation Xrotation Yrotation
					JOINT RightFootFront
					{
						OFFSET 0 -7 8.5	
						CHANNELS 3 Zrotation Xrotation Yrotation
						End Site
						{
							OFFSET 0 -0.5 9
						}
					}
				}
				JOINT RightHeel
				{
					OFFSET 0 -43 -2	
					CHANNELS 3 Zrotation Xrotation Yrotation
					End Site
					{
						OFFSET 0 -7.5 -5
					}
				}
			}
		}
	}
}
MOTION
Frames: 9
Frame Time: 0.025
0 95.445 0 -0 0 -0 -0.70517 0.50481 2.1852 0.6096 -0.21279 -0.26212 0.6096 -0.21279 -0.26212 0.51213 -0.17856 -0.22034 -0 0 -0 0.37251 -3.0204 2.3836 -1.0691 2.8399 -4.6417 -0.072218 0.058174 -0.46065 -0 0 -0 -0.87814 -2.6064 0.21161 -0.5708 1.7526 -1.8522 0.016477 0.99169 -0.03918 -2.6205 -1.6972 -0.66756 -2.6205 -1.6972 -0.66756 -0.70517 0.50481 2.1852 1.5066 -2.9368 -0.25368 -0.8197 2.6993 -2.351 -0.10417 -0.75446 1.0896 0 0 -1.8134e-08 -0 0 -0 -0.70517 0.50481 2.1852 0.13081 -0.10186 -2.5174 0.077839 0.084722 -0.44268 0.38528 -0.52035 1.4022 -0 0 1.4516e-08 -0 0 -0 
0 95.447 0 -0 0 -0 -0.67393 0.49608 2.1907 0.6191 -0.21642 -0.27225 0.6191 -0.21642 -0.27225 0.52011 -0.18159 -0.22884 -0 0 -0 0.32553 -3.0656 2.5207 -1.0559 2.8412 -4.6272 -0.092032 0.12312 -0.58815 -0 0 -0 -0.9118 -2.5707 0.15923 -0.54976 1.756 -1.7948 -0.029856 0.96969 -0.021121 -2.5917 -1.7215 -0.61973 -2.5917 -1.7215 -0.61973 -0.67393 0.49608 2.1907 1.4583 -2.9105 -0.25396 -0.80081 2.68 -2.3677 -0.043208 -0.8065 1.061 -0.01308 0.0077658 0.0058271 -0 0 -0 -0.67393 0.49608 2.1907 0.1008 -0.088669 -2.5245 0.074166 0.084968 -0.44428 0.38827 -0.52387 1.4052 0.0069597 -0.0019619 -7.3875e-05 -0 0 -0 
0 95.45 0 -0 0 -0 -0.6276 0.47077 2.2012 0.63202 -0.22992 -0.29053 0.63202 -0.22992 -0.29053 0.53097 -0.19292 -0.24422 -0 0 -0 0.25852 -3.0922 2.7207 -1.0361 2.8418 -4.607 -0.044859 0.21015 -0.77466 -0 0 -0 -0.95988 -2.4838 0.094463 -0.52516 1.7651 -1.7245 -0.089222 0.92776 0.018278 -2.5519 -1.737 -0.54742 -2.5519 -1.737 -0.54742 -0.6276 0.47077 2.2012 1.3888 -2.8609 -0.25777 -0.77508 2.6536 -2.3908 0.025095 -0.85217 1.0383 -0.0077817 -0.0052613 -0.0017871 -0 0 -0 -0.6276 0.47077 2.2012 0.057989 -0.053409 -2.5462 0.054228 0.092463 -0.44358 0.41326 -0.54125 1.4153 0.011969 -0.00014203 0.00022522 -0 0 -0 
0 95.454 0 -0 0 -0 -0.54395 0.3721 2.2301 0.62865 -0.2444 -0.31992 0.62865 -0.2444 -0.31992 0.52816 -0.20506 -0.26891 -0 0 -0 0.20056 -3.0472 2.9354 -1.0117 2.8409 -4.5827 0.019087 0.2409 -0.8617 -0 0 -0 -0.99542 -2.3192 0.036993 -0.5105 1.7802 -1.6708 -0.14441 0.87714 0.080844 -2.5024 -1.7167 -0.46539 -2.5024 -1.7167 -0.46539 -0.54395 0.3721 2.2301 1.2818 -2.7347 -0.28005 -0.7478 2.6249 -2.4161 0.10325 -0.89545 1.01 0.0039342 -0.0099269 0.00025263 -0 0 -0 -0.54395 0.3721 2.2301 -0.013629 0.062345 -2.6031 0.0087317 0.1103 -0.43107 0.46355 -0.57281 1.4309 0.012107 0.006935 0.00033946 -0 0 -0 
0 95.459 0 -0 0 -0 -0.35969 0.11064 2.2586 0.58338 -0.21351 -0.34102 0.58338 -0.21351 -0.34102 0.49012 -0.17912 -0.2866 -0 0 -0 0.16295 -2.9528 3.092 -0.98785 2.8262 -4.5299 -0.0076088 0.29744 -0.96769 -0 0 -0 -1.0099 -2.1155 -0.040657 -0.51018 1.8099 -1.6252 -0.18969 0.81431 0.14543 -2.436 -1.6748 -0.39961 -2.436 -1.6748 -0.39961 -0.35969 0.11064 2.2586 1.071 -2.4283 -0.29281 -0.71208 2.5828 -2.4527 0.17211 -0.92352 0.96987 0.018556 -0.0098703 0.011956 -0 0 -0 -0.35969 0.11064 2.2586 -0.16328 0.33717 -2.6759 -0.062625 0.14606 -0.40346 0.52342 -0.60827 1.4481 0.003791 -0.42746 -0.00044241 -0 0 -0 
0 95.465 0 -0 0 -0 -0.071039 -0.26533 2.1879 0.4829 -0.10537 -0.28429 0.4829 -0.10537 -0.28429 0.40567 -0.088349 -0.23886 -0 0 -0 0.17829 -2.8975 3.0359 -0.97913 2.7624 -4.4093 -0.013951 0.37363 -1.1198 -0 0 -0 -0.97936 -1.9974 -0.18836 -0.51444 1.8587 -1.5905 -0.21879 0.72694 0.16693 -2.3233 -1.6629 -0.41019 -2.3233 -1.6629 -0.41019 -0.071039 -0.26533 2.1879 0.74524 -1.9598 -0.17584 -0.65641 2.4974 -2.5175 0.19222 -0.92729 0.99189 0.044909 -0.013625 -0.065905 -0 0 -0 -0.071039 -0.26533 2.1879 -0.39786 0.7092 -2.6581 -0.14407 0.20063 -0.36526 0.56804 -0.63622 1.4649 -0.007384 -0.44079 -0.0017356 -0 0 -0 
0 95.472 0 -0 0 -0 0.23282 -0.57915 2.0183 0.35527 0.045025 -0.15947 0.35527 0.045025 -0.15947 0.29841 0.037888 -0.13394 -0 0 -0 0.23083 -2.9224 2.7755 -0.97778 2.6435 -4.256 -0.14465 0.42415 -1.1307 -0 0 -0 -0.91057 -2.0209 -0.27876 -0.5038 1.9005 -1.643 -0.22804 0.61555 0.1247 -2.1493 -1.6981 -0.48914 -2.1493 -1.6981 -0.48914 0.23282 -0.57915 2.0183 0.39616 -1.4919 0.060934 -0.58771 2.3459 -2.5962 0.23346 -0.92949 0.93361 0.016283 0.018242 -0.077911 -0 0 -0 0.23282 -0.57915 2.0183 -0.65232 1.0003 -2.5478 -0.20722 0.25953 -0.30852 0.58178 -0.65133 1.4706 -0.011002 -0.45479 -0.0018248 -0 0 -0 
0 95.479 0 -0 0 -0 0.45665 -0.74946 1.8542 0.26485 0.18829 -0.062859 0.26485 0.18829 -0.062859 0.22246 0.15818 -0.052743 -0 0 -0 0.20423 -3.0055 2.534 -0.95478 2.5228 -4.1624 -0.21107 0.46069 -1.1252 -0 0 -0 -0.88936 -2.1241 -0.13226 -0.47444 1.9035 -1.7995 -0.22117 0.4975 0.024426 -1.9565 -1.7532 -0.54397 -1.9565 -1.7532 -0.54397 0.45665 -0.74946 1.8542 0.12661 -1.1319 0.27836 -0.51986 2.1471 -2.6488 0.28526 -0.81104 0.86206 -0.016261 -0.015769 -0.033439 -0 0 -0 0.45665 -0.74946 1.8542 -0.84465 1.1258 -2.4378 -0.23178 0.31665 -0.23378 0.5638 -0.65168 1.4527 -0.0022969 -0.46329 -0.00031912 -0 0 -0 
0 95.486 0 -0 0 -0 0.57338 -0.83041 1.7815 0.22891 0.28518 -0.043285 0.22891 0.28518 -0.043285 0.19227 0.23956 -0.036283 -0 0 -0 0.065503 -3.0654 2.4566 -0.90111 2.4582 -4.1597 -0.24095 0.47801 -1.0902 -0 0 -0 -0.92218 -2.1844 0.1784 -0.43678 1.8751 -1.9776 -0.20911 0.40102 -0.09011 -1.7725 -1.7596 -0.53018 -1.7725 -1.7596 -0.53018 0.57338 -0.83041 1.7815 -0.043553 -0.86852 0.38341 -0.4575 1.9541 -2.6675 0.33455 -0.71815 0.85986 -0.0074236 0.0037259 -0.0040251 -0 0 -0 0.57338 -0.83041 1.7815 -0.92878 1.1376 -2.384 -0.2339 0.37459 -0.17725 0.52858 -0.63763 1.417 0.012284 -0.46549 0.0012841 -0 0 -0 
